<?xml version="1.0" ?><svg style="enable-background:new 0 0 512 512;" version="1.1" viewBox="0 0 512 512" xml:space="preserve" xmlns="http://www.w3.org/2000/svg" xmlns:xlink="http://www.w3.org/1999/xlink"><style type="text/css">
	.st0{fill:#752C3A;}
	.st1{fill:#FD5B72;}
	.st2{opacity:0.45;fill:#231F20;}
	.st3{fill:#FFFFFF;}
</style><g id="Edges"/><g id="Background_Bottom"><g><path class="st0" d="M492.3,443.1c0,34.2-27.7,61.9-61.9,61.9H80.7c-34.2,0-61.9-27.7-61.9-61.9V93.4c0-34.2,27.7-61.9,61.9-61.9    h349.7c34.2,0,61.9,27.7,61.9,61.9V443.1z"/></g></g><g id="Background"><path class="st1" d="M492.3,418.4c0,34.2-27.7,61.9-61.9,61.9H80.7c-34.2,0-61.9-27.7-61.9-61.9V68.6c0-34.2,27.7-61.9,61.9-61.9   h349.7c34.2,0,61.9,27.7,61.9,61.9V418.4z"/></g><g id="Shadow"><path class="st2" d="M382.5,146.2C352,110.6,306.6,88.1,256,88.1c-92.1,0-166.8,74.7-166.8,166.8c0,48.9,21.1,93,54.7,123.5   l101.9,101.9c0,0,161,0.1,184.7,0.1c34.2,0,61.9-27.7,61.9-61.9c0-13.5,0-162.4,0-162.4L382.5,146.2z"/></g><g id="Symbol"><path class="st3" d="M255.6,88.2c-92.1,0-166.8,74.7-166.8,166.8s74.7,166.8,166.8,166.8S422.3,347.1,422.3,255   S347.7,88.2,255.6,88.2z M256.4,406.1c-83.5,0-151.3-67.7-151.3-151.3s67.7-151.3,151.3-151.3s151.3,67.7,151.3,151.3   S339.9,406.1,256.4,406.1z"/><path class="st3" d="M331.4,152.1L331.4,152.1c-1.7-5.2-3.7-6.4-9.1-5.5c-1.6,0.3-74.8,14.9-99.4,19.9c-4.7,0.9-7.8,3.5-9,8.3l0,0   c0,39.7-0.1,79.4-0.1,119.1l0,0l0,0c0,1.8-0.1,3.5-0.7,5.2c-1.2,3.1-3.6,4.9-6.8,5.6c-3.5,0.7-7,1.4-10.4,2.2   c-6.3,1.4-12.6,2.7-18.3,5.9c-6.9,3.9-11,9.7-11.9,17.7l0,0c-0.7,3.5-0.3,7,0.8,10.3c0.1,0.4,0.1,0.8,0.3,1.2   c4.7,13.7,18.7,17.6,30.3,15c2.1-0.1,4.1-0.6,6.1-1.1c11.8-3,19.1-10.3,21.7-22.2c1.4-6.5,1-110.3,1-112c0.1-4.1,1.8-6.1,5.8-7.1   c1.5-0.4,74.9-15.2,80.8-16.4c4.3-0.9,6.2,0.3,7.1,4.6c0,6.5,0,65.3,0,71.2l0,0l0,0c-0.1,1-0.2,2-0.3,3c-1.1,3.8-3.8,5.7-7.5,6.5   c-3.2,0.7-6.5,1.3-9.7,2c-6.4,1.3-12.7,2.7-18.5,5.9c-7.2,3.9-11.3,9.9-12.4,18.1c0,0,0,0,0,0c-0.7,2.4-0.3,4.7,0,7.1   c1.4,9.6,10.2,18.2,19.8,19.5c6.5,0.9,12.7-0.1,18.9-1.6c14-3.5,21-14.9,21.5-26C331.4,256.2,331.4,204.1,331.4,152.1z"/></g></svg>