<?xml version="1.0" ?><!DOCTYPE svg  PUBLIC '-//W3C//DTD SVG 1.1//EN'  'http://www.w3.org/Graphics/SVG/1.1/DTD/svg11.dtd'><svg enable-background="new 0 0 50 50" id="Layer_1" version="1.1" viewBox="0 0 50 50" xml:space="preserve" xmlns="http://www.w3.org/2000/svg" xmlns:xlink="http://www.w3.org/1999/xlink"><path d="M45,1H5C2.8,1,1,2.8,1,5v40c0,2.2,1.8,4,4,4h40c2.2,0,4-1.8,4-4V5C49,2.8,47.2,1,45,1z" fill="#7DB429"/><path d="M25,10c-8.3,0-15,6.7-15,15s6.7,15,15,15c8.3,0,15-6.7,15-15S33.3,10,25,10z M31.1,32.1  c-0.2,0-0.4-0.1-0.6-0.2c-2.2-1.3-4.9-2-7.8-2c-1.6,0-3.2,0.2-4.7,0.5c-0.2,0.1-0.6,0.1-0.7,0.1c-0.6,0-0.9-0.5-0.9-0.9  c0-0.6,0.4-0.9,0.8-1c1.9-0.4,3.7-0.7,5.6-0.7c3.3,0,6.2,0.8,8.7,2.3c0.4,0.2,0.6,0.4,0.6,1C32,31.7,31.6,32.1,31.1,32.1z   M32.7,28.1c-0.3,0-0.5-0.1-0.8-0.3c-2.4-1.4-5.8-2.4-9.5-2.4c-1.9,0-3.5,0.3-4.9,0.6c-0.3,0.1-0.5,0.2-0.7,0.2  c-0.6,0-1.2-0.5-1.2-1.2c0-0.6,0.3-1.1,0.9-1.3c1.7-0.5,3.4-0.8,5.9-0.8c3.9,0,7.7,1,10.7,2.8c0.5,0.3,0.7,0.6,0.7,1.2  C33.9,27.6,33.4,28.1,32.7,28.1z M34.6,23.5c-0.3,0-0.5-0.1-0.8-0.2c-2.7-1.6-6.9-2.5-11-2.5c-2,0-4.1,0.2-6,0.7  c-0.2,0.1-0.5,0.2-0.8,0.2c-0.8,0-1.4-0.6-1.4-1.4c0-0.8,0.5-1.3,1-1.4c2.1-0.6,4.5-0.9,7.1-0.9c4.4,0,9,0.9,12.4,2.9  c0.5,0.3,0.8,0.6,0.8,1.4C36,22.9,35.3,23.5,34.6,23.5z" fill="#FFFFFF" id="WTF"/></svg>