<?xml version="1.0" ?><svg id="Layer_1" style="enable-background:new 0 0 512 512;" version="1.1" viewBox="0 0 512 512" xml:space="preserve" xmlns="http://www.w3.org/2000/svg" xmlns:xlink="http://www.w3.org/1999/xlink"><style type="text/css">
	.st0{fill:none;stroke:#000000;stroke-width:12;stroke-linecap:round;stroke-linejoin:round;stroke-miterlimit:10;}
</style><g><path class="st0" d="M442.9,300.7c0,0.9,0,0.8,0,1.7 M442.9,322.7c0,11.6,0,23.2,0,34.8c-2.2,8.8-3.2,18-6.7,26.3   c-12.9,31.4-36.5,50.1-70,56.1c-4.2,0.7-8.4,1-12.7,1.2c-7.2,0.4-12.1-4.2-12.1-11.4c0-52.8,0-105.6,0-158.4   c0-7.4,5-11.8,12.5-11.5c25.8,1,47.6,10.7,65.2,29.6c0.5,0.5,1,0.9,1.5,1.4c0.3-0.4,0.5-0.6,0.5-0.8c0.2-26.7,1.8-53.6-6.7-79.5   c-19.5-59.5-59.3-98.8-120.2-113.3c-61.9-14.7-115.9,2.6-159.7,48.8c-6.2,6.6-11.8,13.5-16.7,20.7 M101.9,197   c-7.4,19-11.1,39.6-11.1,61.4c0,8.3,0,16.5,0,24.8c0,1,0.1,2.1,0.2,3.5c3.8-3.5,7.1-6.9,10.7-9.9c16.6-14.1,36-20.8,57.6-21.3   c6.7-0.2,11.3,4.5,11.3,11.5c0,11.6,0,23.2,0,34.8 M170.6,325.4C170.6,325.9,170.6,324.9,170.6,325.4 M170.6,349.4   c0,24.7,0,49.5,0,74.2c0,9.8-4.5,13.7-14.4,13.1c-18.7-1-35.1-6.7-49.3-17 M85.3,397.7C76.8,385.7,71.7,372,69.8,357   c-0.2-1.3-0.5-2.6-0.7-3.9c0-35.5,0-71.1,0-106.6c0.2-1.2,0.5-2.4,0.7-3.5c0.9-6.7,1.4-13.6,2.7-20.2c8.3-43,29-78.9,62.4-107.2   c16.9-14.3,34.8-25.1,53.8-32.5 M215,75c22.1-4.8,45.4-5.5,69.7-1.9c39.3,5.7,73.2,23,101.7,50.8c28.8,28.1,46.8,62,53.7,101.7   c1.2,6.9,1.9,13.9,2.9,20.9c0,11.4,0,22.8,0,34.2"/></g></svg>