<?xml version="1.0" ?><!DOCTYPE svg  PUBLIC '-//W3C//DTD SVG 1.1//EN'  'http://www.w3.org/Graphics/SVG/1.1/DTD/svg11.dtd'><svg height="100%" style="fill-rule:evenodd;clip-rule:evenodd;stroke-linejoin:round;stroke-miterlimit:1.41421;" version="1.1" viewBox="0 0 101 125" width="100%" xml:space="preserve" xmlns="http://www.w3.org/2000/svg" xmlns:serif="http://www.serif.com/" xmlns:xlink="http://www.w3.org/1999/xlink"><path d="M89.394,32.95c0,-4.4 -3.6,-8 -8,-8l-42,0c-4.4,0 -8,3.6 -8,8l0,39.9c-1.8,-0.9 -3.9,-1.4 -6,-1.4c-7.7,0 -14,6.3 -14,14c0,7.7 6.3,14 14,14c7.6,0 13.7,-6 14,-13.5l0,-33l42,0l0,8.9c-1.8,-0.9 -3.9,-1.4 -6,-1.4c-7.7,0 -14,6.3 -14,14c0,7.7 6.3,14 14,14c7.7,0 14,-6.3 14,-14c0,-0.2 0,-0.3 0,-0.5l0,-41Zm-64,58.4c-3.3,0 -6,-2.7 -6,-6c0,-3.3 2.7,-6 6,-6c3.3,0 6,2.7 6,6c0,3.3 -2.7,6 -6,6Zm14,-46.4l0,-12l42,0l0,12l-42,0Zm36,35.4c-3.3,0 -6,-2.7 -6,-6c0,-3.3 2.7,-6 6,-6c3.3,0 6,2.7 6,6c0,3.3 -2.7,6 -6,6Z" style="fill-rule:nonzero;"/><path d="M25.394,91.35c-3.3,0 -6,-2.7 -6,-6c0,-3.3 2.7,-6 6,-6c3.3,0 6,2.7 6,6c0,3.3 -2.7,6 -6,6Z" style="fill:#ff3ae2;"/><path d="M75.394,80.35c-3.3,0 -6,-2.7 -6,-6c0,-3.3 2.7,-6 6,-6c3.3,0 6,2.7 6,6c0,3.3 -2.7,6 -6,6Z" style="fill:#ff3ae2;"/><rect height="12" style="fill:#ff3ae2;" width="42" x="39.394" y="32.95"/><path d="M39.394,43l0,1.95l42,0l0,-4.95l-42,3Z" style="fill-opacity:0.200655;"/><path d="M18.394,89.4l0,1.95l14,0l0,-4.95l-14,3Z" style="fill-opacity:0.200655;"/><path d="M68.394,78.4l0,1.95l14,0l0,-4.95l-14,3Z" style="fill-opacity:0.200655;"/></svg>